<svg xmlns="http://www.w3.org/2000/svg" xmlns:xlink="http://www.w3.org/1999/xlink" width="500" zoomAndPan="magnify" viewBox="0 0 375 374.999991" height="500" preserveAspectRatio="xMidYMid meet" version="1.0"><defs><g/><clipPath id="2635289a1b"><path d="M 101.890625 175.796875 L 112.789062 175.796875 L 112.789062 186.234375 L 101.890625 186.234375 Z M 101.890625 175.796875 " clip-rule="nonzero"/></clipPath><clipPath id="c2c20aecbb"><path d="M 100.226562 176.023438 L 111.476562 176.023438 L 111.476562 185.773438 L 100.226562 185.773438 Z M 100.226562 176.023438 " clip-rule="nonzero"/></clipPath></defs><g fill="#222222" fill-opacity="1"><g transform="translate(54.406506, 189.366681)"><g><path d="M 16.84375 -5.734375 C 17.8125 -5.734375 18.75 -5.878906 19.65625 -6.171875 C 20.570312 -6.460938 21.242188 -6.742188 21.671875 -7.015625 L 22.3125 -7.453125 L 25.015625 -2.0625 C 24.921875 -1.988281 24.796875 -1.894531 24.640625 -1.78125 C 24.484375 -1.675781 24.117188 -1.46875 23.546875 -1.15625 C 22.972656 -0.851562 22.359375 -0.585938 21.703125 -0.359375 C 21.046875 -0.140625 20.1875 0.0546875 19.125 0.234375 C 18.070312 0.410156 16.984375 0.5 15.859375 0.5 C 13.273438 0.5 10.820312 -0.132812 8.5 -1.40625 C 6.1875 -2.675781 4.320312 -4.421875 2.90625 -6.640625 C 1.488281 -8.867188 0.78125 -11.28125 0.78125 -13.875 C 0.78125 -15.832031 1.195312 -17.707031 2.03125 -19.5 C 2.863281 -21.300781 3.96875 -22.84375 5.34375 -24.125 C 6.726562 -25.414062 8.34375 -26.441406 10.1875 -27.203125 C 12.03125 -27.960938 13.921875 -28.34375 15.859375 -28.34375 C 17.660156 -28.34375 19.320312 -28.128906 20.84375 -27.703125 C 22.363281 -27.273438 23.4375 -26.847656 24.0625 -26.421875 L 25.015625 -25.78125 L 22.3125 -20.390625 C 22.15625 -20.523438 21.914062 -20.6875 21.59375 -20.875 C 21.28125 -21.0625 20.648438 -21.3125 19.703125 -21.625 C 18.765625 -21.945312 17.8125 -22.109375 16.84375 -22.109375 C 15.3125 -22.109375 13.9375 -21.859375 12.71875 -21.359375 C 11.507812 -20.867188 10.550781 -20.21875 9.84375 -19.40625 C 9.132812 -18.59375 8.59375 -17.71875 8.21875 -16.78125 C 7.84375 -15.851562 7.65625 -14.90625 7.65625 -13.9375 C 7.65625 -11.820312 8.445312 -9.925781 10.03125 -8.25 C 11.625 -6.570312 13.894531 -5.734375 16.84375 -5.734375 Z M 16.84375 -5.734375 "/></g></g></g><g fill="#222222" fill-opacity="1"><g transform="translate(76.942703, 189.366681)"><g><path d="M 2.03125 0 L 2.03125 -29.03125 L 8 -29.03125 L 8 -15.484375 L 8.0625 -15.484375 C 9.613281 -17.035156 11.269531 -17.8125 13.03125 -17.8125 C 13.882812 -17.8125 14.734375 -17.695312 15.578125 -17.46875 C 16.421875 -17.25 17.226562 -16.90625 18 -16.4375 C 18.78125 -15.96875 19.410156 -15.296875 19.890625 -14.421875 C 20.378906 -13.554688 20.625 -12.550781 20.625 -11.40625 L 20.625 0 L 14.640625 0 L 14.640625 -9.78125 C 14.640625 -10.6875 14.351562 -11.472656 13.78125 -12.140625 C 13.207031 -12.816406 12.460938 -13.15625 11.546875 -13.15625 C 10.640625 -13.15625 9.820312 -12.804688 9.09375 -12.109375 C 8.363281 -11.410156 8 -10.632812 8 -9.78125 L 8 0 Z M 2.03125 0 "/></g></g></g><g fill="#222222" fill-opacity="1"><g transform="translate(96.374977, 189.366681)"><g><path d="M 3.203125 -2.140625 C 1.585938 -3.910156 0.78125 -6.078125 0.78125 -8.640625 C 0.78125 -11.203125 1.585938 -13.367188 3.203125 -15.140625 C 4.828125 -16.921875 6.882812 -17.8125 9.375 -17.8125 C 11.675781 -17.8125 13.566406 -17.09375 15.046875 -15.65625 L 15.046875 -17.3125 L 21.03125 -17.3125 L 21.03125 0 L 15.125 0 L 15.125 -1.953125 L 15.046875 -1.953125 C 13.566406 -0.316406 11.675781 0.5 9.375 0.5 C 6.882812 0.5 4.828125 -0.378906 3.203125 -2.140625 Z M 8.28125 -11.5625 C 7.507812 -10.800781 7.125 -9.820312 7.125 -8.625 C 7.125 -7.4375 7.492188 -6.46875 8.234375 -5.71875 C 8.972656 -4.96875 9.953125 -4.59375 11.171875 -4.59375 C 12.335938 -4.59375 13.296875 -4.972656 14.046875 -5.734375 C 14.804688 -6.503906 15.1875 -7.472656 15.1875 -8.640625 C 15.1875 -9.828125 14.796875 -10.800781 14.015625 -11.5625 C 13.242188 -12.332031 12.296875 -12.71875 11.171875 -12.71875 C 10.023438 -12.71875 9.0625 -12.332031 8.28125 -11.5625 Z M 8.28125 -11.5625 "/></g></g></g><g fill="#222222" fill-opacity="1"><g transform="translate(116.549493, 189.366681)"><g><path d="M 3.03125 -17.3125 L 3.03125 -23.765625 L 9.015625 -23.765625 L 9.015625 -17.3125 L 12.65625 -17.3125 L 12.65625 -12.75 L 9.015625 -12.75 L 9.015625 -7.25 C 9.015625 -5.65625 9.460938 -4.859375 10.359375 -4.859375 C 10.585938 -4.859375 10.820312 -4.898438 11.0625 -4.984375 C 11.3125 -5.078125 11.503906 -5.171875 11.640625 -5.265625 L 11.84375 -5.40625 L 13.328125 -0.578125 C 12.046875 0.140625 10.582031 0.5 8.9375 0.5 C 7.8125 0.5 6.84375 0.304688 6.03125 -0.078125 C 5.226562 -0.472656 4.617188 -1.003906 4.203125 -1.671875 C 3.785156 -2.335938 3.484375 -3.035156 3.296875 -3.765625 C 3.117188 -4.492188 3.03125 -5.273438 3.03125 -6.109375 L 3.03125 -12.75 L 0.546875 -12.75 L 0.546875 -17.3125 Z M 3.03125 -17.3125 "/></g></g></g><g fill="#222222" fill-opacity="1"><g transform="translate(127.00739, 189.366681)"><g/></g></g><g fill="#222222" fill-opacity="1"><g transform="translate(133.349224, 189.366681)"><g><path d="M 23.390625 0 L 18.9375 -15.625 L 14.484375 0 L 7.421875 0 L -0.5 -27.84375 L 6.546875 -27.84375 L 11.3125 -8.734375 L 11.46875 -8.734375 L 16.53125 -27.84375 L 21.328125 -27.84375 L 26.390625 -8.734375 L 26.5625 -8.734375 L 31.3125 -27.84375 L 38.34375 -27.84375 L 30.40625 0 Z M 23.390625 0 "/></g></g></g><g fill="#222222" fill-opacity="1"><g transform="translate(168.301098, 189.366681)"><g><path d="M 2.59375 -26.96875 C 3.289062 -27.664062 4.125 -28.015625 5.09375 -28.015625 C 6.0625 -28.015625 6.894531 -27.664062 7.59375 -26.96875 C 8.289062 -26.269531 8.640625 -25.4375 8.640625 -24.46875 C 8.640625 -23.5 8.289062 -22.664062 7.59375 -21.96875 C 6.894531 -21.269531 6.0625 -20.921875 5.09375 -20.921875 C 4.125 -20.921875 3.289062 -21.269531 2.59375 -21.96875 C 1.894531 -22.664062 1.546875 -23.5 1.546875 -24.46875 C 1.546875 -25.4375 1.894531 -26.269531 2.59375 -26.96875 Z M 2.03125 -17.3125 L 2.03125 0 L 8 0 L 8 -17.3125 Z M 2.03125 -17.3125 "/></g></g></g><g fill="#222222" fill-opacity="1"><g transform="translate(175.621334, 189.366681)"><g><path d="M 3.03125 -17.3125 L 3.03125 -23.765625 L 9.015625 -23.765625 L 9.015625 -17.3125 L 12.65625 -17.3125 L 12.65625 -12.75 L 9.015625 -12.75 L 9.015625 -7.25 C 9.015625 -5.65625 9.460938 -4.859375 10.359375 -4.859375 C 10.585938 -4.859375 10.820312 -4.898438 11.0625 -4.984375 C 11.3125 -5.078125 11.503906 -5.171875 11.640625 -5.265625 L 11.84375 -5.40625 L 13.328125 -0.578125 C 12.046875 0.140625 10.582031 0.5 8.9375 0.5 C 7.8125 0.5 6.84375 0.304688 6.03125 -0.078125 C 5.226562 -0.472656 4.617188 -1.003906 4.203125 -1.671875 C 3.785156 -2.335938 3.484375 -3.035156 3.296875 -3.765625 C 3.117188 -4.492188 3.03125 -5.273438 3.03125 -6.109375 L 3.03125 -12.75 L 0.546875 -12.75 L 0.546875 -17.3125 Z M 3.03125 -17.3125 "/></g></g></g><g fill="#222222" fill-opacity="1"><g transform="translate(186.07923, 189.366681)"><g><path d="M 2.03125 0 L 2.03125 -29.03125 L 8 -29.03125 L 8 -15.484375 L 8.0625 -15.484375 C 9.613281 -17.035156 11.269531 -17.8125 13.03125 -17.8125 C 13.882812 -17.8125 14.734375 -17.695312 15.578125 -17.46875 C 16.421875 -17.25 17.226562 -16.90625 18 -16.4375 C 18.78125 -15.96875 19.410156 -15.296875 19.890625 -14.421875 C 20.378906 -13.554688 20.625 -12.550781 20.625 -11.40625 L 20.625 0 L 14.640625 0 L 14.640625 -9.78125 C 14.640625 -10.6875 14.351562 -11.472656 13.78125 -12.140625 C 13.207031 -12.816406 12.460938 -13.15625 11.546875 -13.15625 C 10.640625 -13.15625 9.820312 -12.804688 9.09375 -12.109375 C 8.363281 -11.410156 8 -10.632812 8 -9.78125 L 8 0 Z M 2.03125 0 "/></g></g></g><g fill="#222222" fill-opacity="1"><g transform="translate(205.511502, 189.366681)"><g/></g></g><g fill="#222222" fill-opacity="1"><g transform="translate(211.853337, 189.366681)"><g><path d="M 16.171875 -27.84375 L 27.40625 0 L 20.59375 0 L 18.53125 -5.5625 L 7.9375 -5.5625 L 5.875 0 L -0.9375 0 L 10.296875 -27.84375 Z M 16.375 -11.140625 L 13.265625 -19.234375 L 13.203125 -19.234375 L 10.09375 -11.140625 Z M 16.375 -11.140625 "/></g></g></g><g fill="#222222" fill-opacity="1"><g transform="translate(235.43542, 189.366681)"><g><path d="M 2.03125 0 L 2.03125 -17.3125 L 8 -17.3125 L 8 -15.484375 L 8.0625 -15.484375 C 9.613281 -17.035156 11.269531 -17.8125 13.03125 -17.8125 C 13.882812 -17.8125 14.734375 -17.695312 15.578125 -17.46875 C 16.421875 -17.25 17.226562 -16.90625 18 -16.4375 C 18.78125 -15.96875 19.410156 -15.296875 19.890625 -14.421875 C 20.378906 -13.554688 20.625 -12.550781 20.625 -11.40625 L 20.625 0 L 14.640625 0 L 14.640625 -9.78125 C 14.640625 -10.6875 14.351562 -11.472656 13.78125 -12.140625 C 13.207031 -12.816406 12.460938 -13.15625 11.546875 -13.15625 C 10.640625 -13.15625 9.820312 -12.804688 9.09375 -12.109375 C 8.363281 -11.410156 8 -10.632812 8 -9.78125 L 8 0 Z M 2.03125 0 "/></g></g></g><g fill="#222222" fill-opacity="1"><g transform="translate(254.867704, 189.366681)"><g><path d="M 15.15625 -17.3125 L 22.03125 -17.3125 L 8.4375 8.78125 L 1.546875 8.78125 L 7.53125 -2.703125 L -0.671875 -17.3125 L 6.203125 -17.3125 L 11.03125 -8.4375 Z M 15.15625 -17.3125 "/></g></g></g><g fill="#222222" fill-opacity="1"><g transform="translate(273.355313, 189.366681)"><g><path d="M 3.65625 -2.0625 C 1.738281 -3.769531 0.78125 -5.960938 0.78125 -8.640625 C 0.78125 -11.316406 1.78125 -13.515625 3.78125 -15.234375 C 5.78125 -16.953125 8.253906 -17.8125 11.203125 -17.8125 C 14.109375 -17.8125 16.554688 -16.945312 18.546875 -15.21875 C 20.535156 -13.488281 21.53125 -11.296875 21.53125 -8.640625 C 21.53125 -5.984375 20.554688 -3.796875 18.609375 -2.078125 C 16.660156 -0.359375 14.191406 0.5 11.203125 0.5 C 8.097656 0.5 5.582031 -0.351562 3.65625 -2.0625 Z M 8.28125 -11.5625 C 7.507812 -10.800781 7.125 -9.820312 7.125 -8.625 C 7.125 -7.4375 7.492188 -6.46875 8.234375 -5.71875 C 8.972656 -4.96875 9.953125 -4.59375 11.171875 -4.59375 C 12.335938 -4.59375 13.296875 -4.972656 14.046875 -5.734375 C 14.804688 -6.503906 15.1875 -7.472656 15.1875 -8.640625 C 15.1875 -9.828125 14.796875 -10.800781 14.015625 -11.5625 C 13.242188 -12.332031 12.296875 -12.71875 11.171875 -12.71875 C 10.023438 -12.71875 9.0625 -12.332031 8.28125 -11.5625 Z M 8.28125 -11.5625 "/></g></g></g><g fill="#222222" fill-opacity="1"><g transform="translate(292.787585, 189.366681)"><g><path d="M 2.03125 0 L 2.03125 -17.3125 L 8 -17.3125 L 8 -15.484375 L 8.0625 -15.484375 C 9.613281 -17.035156 11.269531 -17.8125 13.03125 -17.8125 C 13.882812 -17.8125 14.734375 -17.695312 15.578125 -17.46875 C 16.421875 -17.25 17.226562 -16.90625 18 -16.4375 C 18.78125 -15.96875 19.410156 -15.296875 19.890625 -14.421875 C 20.378906 -13.554688 20.625 -12.550781 20.625 -11.40625 L 20.625 0 L 14.640625 0 L 14.640625 -9.78125 C 14.640625 -10.6875 14.351562 -11.472656 13.78125 -12.140625 C 13.207031 -12.816406 12.460938 -13.15625 11.546875 -13.15625 C 10.640625 -13.15625 9.820312 -12.804688 9.09375 -12.109375 C 8.363281 -11.410156 8 -10.632812 8 -9.78125 L 8 0 Z M 2.03125 0 "/></g></g></g><g fill="#222222" fill-opacity="1"><g transform="translate(312.219857, 189.366681)"><g><path d="M 19.546875 -7.828125 L 6.984375 -7.828125 C 6.984375 -6.609375 7.375 -5.707031 8.15625 -5.125 C 8.945312 -4.539062 9.804688 -4.25 10.734375 -4.25 C 11.703125 -4.25 12.46875 -4.378906 13.03125 -4.640625 C 13.59375 -4.898438 14.234375 -5.410156 14.953125 -6.171875 L 19.265625 -4.015625 C 17.472656 -1.003906 14.484375 0.5 10.296875 0.5 C 7.679688 0.5 5.441406 -0.390625 3.578125 -2.171875 C 1.710938 -3.960938 0.78125 -6.117188 0.78125 -8.640625 C 0.78125 -11.160156 1.710938 -13.316406 3.578125 -15.109375 C 5.441406 -16.910156 7.679688 -17.8125 10.296875 -17.8125 C 13.035156 -17.8125 15.265625 -17.019531 16.984375 -15.4375 C 18.710938 -13.851562 19.578125 -11.585938 19.578125 -8.640625 C 19.578125 -8.234375 19.566406 -7.960938 19.546875 -7.828125 Z M 7.15625 -11.140625 L 13.734375 -11.140625 C 13.597656 -12.035156 13.242188 -12.722656 12.671875 -13.203125 C 12.097656 -13.691406 11.363281 -13.9375 10.46875 -13.9375 C 9.476562 -13.9375 8.6875 -13.675781 8.09375 -13.15625 C 7.507812 -12.644531 7.195312 -11.972656 7.15625 -11.140625 Z M 7.15625 -11.140625 "/></g></g></g><g clip-path="url(#2635289a1b)"><path fill="#222222" d="M 101.890625 175.796875 L 112.789062 175.796875 L 112.789062 186.234375 L 101.890625 186.234375 Z M 101.890625 175.796875 " fill-opacity="1" fill-rule="nonzero"/></g><g clip-path="url(#c2c20aecbb)"><path fill="#ffffff" d="M 108.273438 181.296875 C 107.882812 181.296875 107.5625 180.976562 107.5625 180.585938 C 107.5625 180.195312 107.882812 179.875 108.273438 179.875 C 108.664062 179.875 108.984375 180.195312 108.984375 180.585938 C 108.984375 180.976562 108.664062 181.296875 108.273438 181.296875 Z M 105.90625 181.296875 C 105.515625 181.296875 105.199219 180.976562 105.199219 180.585938 C 105.199219 180.195312 105.515625 179.875 105.90625 179.875 C 106.300781 179.875 106.617188 180.195312 106.617188 180.585938 C 106.617188 180.976562 106.300781 181.296875 105.90625 181.296875 Z M 103.542969 181.296875 C 103.148438 181.296875 102.832031 180.976562 102.832031 180.585938 C 102.832031 180.195312 103.148438 179.875 103.542969 179.875 C 103.933594 179.875 104.25 180.195312 104.25 180.585938 C 104.25 180.976562 103.933594 181.296875 103.542969 181.296875 Z M 106.09375 176.089844 C 102.910156 176.023438 100.292969 177.988281 100.242188 180.46875 C 100.226562 181.332031 100.523438 182.144531 101.050781 182.839844 C 101.957031 184.003906 100.964844 186.003906 100.964844 186.003906 L 103.886719 184.746094 C 104.515625 184.945312 105.199219 185.0625 105.917969 185.074219 C 109.097656 185.136719 111.71875 183.175781 111.765625 180.695312 C 111.816406 178.214844 109.277344 176.152344 106.09375 176.089844 " fill-opacity="1" fill-rule="evenodd"/></g></svg>